#!OML:ASF H:\Punching\Project 1\Capture day 1\Session 1\female.ASF
:FULLY-SPECIFIED
:DEGREES
781
root 1.57159 14.2067 2.42351 17.1801 27.8387 0.451387
lowerback 9.98442 6.71982 10.3214
upperback -1.57715 10.6235 5.03986
thorax -6.38901 4.92139 -1.88919
lowerneck -10.72 -11.5478 -2.09583
upperneck 15.3825 -16.3422 6.16156
head 7.16424 -7.3932 0.724038
rclavicle -3.81667e-014 -4.45278e-014
rhumerus 34.3443 -11.3431 -71.6514
rradius 26.657
rwrist 7.59099
rhand -17.8701 -21.4851
rfingers 7.12502
rthumb 8.39573 -51.2982
lclavicle -3.81667e-014 -4.45278e-014
lhumerus 26.5789 -47.8128 74.7915
lradius 134.401
lwrist 8.03168
lhand -23.3585 8.03729
lfingers 7.12502
lthumb 3.09686 37.9945
rfemur 4.08723 -15.4721 13.7303
rtibia 25.2811
rfoot -31.4978 -28.9653
rtoes -18.4543
lfemur -61.7707 -10.0895 -18.6214
ltibia 50.292
lfoot -4.15623 -6.0641
ltoes 3.49955
782
root 1.57092 14.2 2.41684 17.3003 27.4806 0.61192
lowerback 10.3371 6.8944 10.1822
upperback -1.6346 10.8847 4.91147
thorax -6.6249 5.03364 -2.03324
lowerneck -10.6628 -11.4933 -1.91631
upperneck 14.839 -16.2972 6.41796
head 6.98489 -7.36518 0.800802
rclavicle 1.98785e-014 3.18055e-015
rhumerus 34.6056 -12.8233 -72.6474
rradius 26.2898
rwrist 10.1849
rhand -17.4705 -20.4597
rfingers 7.12502
rthumb 8.78132 -50.257
lclavicle 1.98785e-014 3.18055e-015
lhumerus 26.6508 -47.765 74.5558
lradius 134.373
lwrist 7.63242
lhand -23.178 8.01525
lfingers 7.12502
lthumb 3.27122 37.9699
rfemur 3.27024 -16.2594 13.248
rtibia 26.6328
rfoot -31.7676 -28.3666
rtoes -18.9151
lfemur -61.8242 -9.95295 -18.7672
ltibia 50.3566
lfoot -4.27079 -5.82513
ltoes 3.42595
783
root 1.57001 14.1942 2.41139 17.5247 27.0841 0.80647
lowerback 10.597 6.9798 9.90062
upperback -1.7201 10.9983 4.77894
thorax -6.87675 5.07898 -2.0833
lowerneck -10.6265 -11.3272 -1.64646
upperneck 14.3769 -16.1067 6.60024
head 6.81605 -7.26635 0.85404
rclavicle 6.75868e-014 3.49861e-014
rhumerus 34.0838 -12.6454 -72.6218
rradius 27.4528
rwrist 10.615
rhand -16.8076 -19.8999
rfingers 7.12502
rthumb 9.42097 -49.6694
lclavicle 6.75868e-014 3.49861e-014
lhumerus 26.5827 -47.6444 74.4374
lradius 134.353
lwrist 7.18147
lhand -22.9885 8.08163
lfingers 7.12502
lthumb 3.45421 38.0334
rfemur 2.28906 -17.0391 12.7594
rtibia 28.0884
rfoot -32.0603 -27.7561
rtoes -19.2775
lfemur -61.9591 -9.81933 -18.911
ltibia 50.3906
lfoot -4.36653 -5.56721
ltoes 3.34379
784
root 1.56902 14.1897 2.4069 17.8267 26.6357 1.02561
lowerback 10.7462 6.97239 9.46871
upperback -1.80414 10.9537 4.66401
thorax -7.10902 5.05688 -2.00413
lowerneck -10.6327 -11.0461 -1.29994
upperneck 14.0342 -15.7632 6.6732
head 6.67169 -7.09411 0.872788
rclavicle 2.40132e-013 1.90833e-014
rhumerus 33.055 -11.1005 -71.9375
rradius 29.8188
rwrist 9.20436
rhand -16.0357 -19.7181
rfingers 7.12502
rthumb 10.1657 -49.4525
lclavicle 2.40132e-013 1.90833e-014
lhumerus 26.3929 -47.4602 74.4384
lradius 134.364
lwrist 6.68215
lhand -22.8225 8.30731
lfingers 7.12502
lthumb 3.61455 38.2564
rfemur 1.17192 -17.8014 12.2671
rtibia 29.6169
rfoot -32.3381 -27.1492
rtoes -19.5776
lfemur -62.1515 -9.67505 -19.0542
ltibia 50.3986
lfoot -4.44699 -5.28179
ltoes 3.25185
785
root 1.56854 14.1868 2.40294 18.1712 26.1177 1.24715
lowerback 10.8214 6.88177 8.9315
upperback -1.88577 10.7742 4.56212
thorax -7.32848 4.97657 -1.8285
lowerneck -10.6827 -10.6663 -0.890545
upperneck 13.843 -15.29 6.62663
head 6.5647 -6.85885 0.851835
rclavicle -4.21423e-014 -3.49861e-014
rhumerus 31.8056 -8.73255 -71.1179
rradius 33.1082
rwrist 6.5549
rhand -15.3567 -19.8274
rfingers 7.12502
rthumb 10.8207 -49.5287
lclavicle -4.21423e-014 -3.49861e-014
lhumerus 26.09 -47.2474 74.561
lradius 134.416
lwrist 6.20672
lhand -22.713 8.61286
lfingers 7.12502
lthumb 3.72021 38.5601
rfemur -0.040698 -18.5289 11.7795
rtibia 31.1752
rfoot -32.5814 -26.5345
rtoes -19.8268
lfemur -62.3766 -9.50453 -19.1863
ltibia 50.3919
lfoot -4.52231 -4.96119
ltoes 3.14099
